<svg width="142" height="102" viewBox="0 0 142 102" fill="none" xmlns="http://www.w3.org/2000/svg">
<path d="M9.75115 19.4707V13.2207M9.75115 13.2207L7.66782 15.304M9.75115 13.2207L11.8345 15.304" stroke="#EDE7FF" stroke-width="1.5" stroke-linecap="round" stroke-linejoin="round"/>
<path d="M23.2928 12.179V17.3874C23.2928 22.5957 21.2095 24.679 16.0012 24.679H9.75116C4.54282 24.679 2.45949 22.5957 2.45949 17.3874V11.1374C2.45949 5.92904 4.54282 3.8457 9.75116 3.8457H14.9595" stroke="#EDE7FF" stroke-width="1.5" stroke-linecap="round" stroke-linejoin="round"/>
<path d="M23.2928 12.179H19.1262C16.0012 12.179 14.9595 11.1374 14.9595 8.01237V3.8457L23.2928 12.179Z" stroke="#EDE7FF" stroke-width="1.5" stroke-linecap="round" stroke-linejoin="round"/>
<path d="M42.0882 8.25172V9.92572H36.7782V13.6157H40.9182V15.2897H36.7782V20.7617H34.7262V8.25172H42.0882ZM45.0338 9.52972C44.6618 9.52972 44.3498 9.40372 44.0978 9.15172C43.8458 8.89972 43.7198 8.58772 43.7198 8.21572C43.7198 7.84372 43.8458 7.53172 44.0978 7.27972C44.3498 7.02772 44.6618 6.90172 45.0338 6.90172C45.3938 6.90172 45.6998 7.02772 45.9518 7.27972C46.2038 7.53172 46.3298 7.84372 46.3298 8.21572C46.3298 8.58772 46.2038 8.89972 45.9518 9.15172C45.6998 9.40372 45.3938 9.52972 45.0338 9.52972ZM46.0418 10.8437V20.7617H43.9898V10.8437H46.0418ZM50.7879 7.44172V20.7617H48.7359V7.44172H50.7879ZM62.572 15.5597C62.572 15.9317 62.548 16.2677 62.5 16.5677H54.922C54.982 17.3597 55.276 17.9957 55.804 18.4757C56.332 18.9557 56.98 19.1957 57.748 19.1957C58.852 19.1957 59.632 18.7337 60.088 17.8097H62.302C62.002 18.7217 61.456 19.4717 60.664 20.0597C59.884 20.6357 58.912 20.9237 57.748 20.9237C56.8 20.9237 55.948 20.7137 55.192 20.2937C54.448 19.8617 53.86 19.2617 53.428 18.4937C53.008 17.7137 52.798 16.8137 52.798 15.7937C52.798 14.7737 53.002 13.8797 53.41 13.1117C53.83 12.3317 54.412 11.7317 55.156 11.3117C55.912 10.8917 56.776 10.6817 57.748 10.6817C58.684 10.6817 59.518 10.8857 60.25 11.2937C60.982 11.7017 61.552 12.2777 61.96 13.0217C62.368 13.7537 62.572 14.5997 62.572 15.5597ZM60.43 14.9117C60.418 14.1557 60.148 13.5497 59.62 13.0937C59.092 12.6377 58.438 12.4097 57.658 12.4097C56.95 12.4097 56.344 12.6377 55.84 13.0937C55.336 13.5377 55.036 14.1437 54.94 14.9117H60.43ZM65.4194 20.8877C65.0474 20.8877 64.7354 20.7617 64.4834 20.5097C64.2314 20.2577 64.1054 19.9457 64.1054 19.5737C64.1054 19.2017 64.2314 18.8897 64.4834 18.6377C64.7354 18.3857 65.0474 18.2597 65.4194 18.2597C65.7794 18.2597 66.0854 18.3857 66.3374 18.6377C66.5894 18.8897 66.7154 19.2017 66.7154 19.5737C66.7154 19.9457 66.5894 20.2577 66.3374 20.5097C66.0854 20.7617 65.7794 20.8877 65.4194 20.8877ZM68.2492 15.7577C68.2492 14.7617 68.4532 13.8797 68.8612 13.1117C69.2812 12.3437 69.8452 11.7497 70.5532 11.3297C71.2732 10.8977 72.0712 10.6817 72.9472 10.6817C73.5952 10.6817 74.2312 10.8257 74.8552 11.1137C75.4912 11.3897 75.9952 11.7617 76.3672 12.2297V7.44172H78.4372V20.7617H76.3672V19.2677C76.0312 19.7477 75.5632 20.1437 74.9632 20.4557C74.3752 20.7677 73.6972 20.9237 72.9292 20.9237C72.0652 20.9237 71.2732 20.7077 70.5532 20.2757C69.8452 19.8317 69.2812 19.2197 68.8612 18.4397C68.4532 17.6477 68.2492 16.7537 68.2492 15.7577ZM76.3672 15.7937C76.3672 15.1097 76.2232 14.5157 75.9352 14.0117C75.6592 13.5077 75.2932 13.1237 74.8372 12.8597C74.3812 12.5957 73.8892 12.4637 73.3612 12.4637C72.8332 12.4637 72.3412 12.5957 71.8852 12.8597C71.4292 13.1117 71.0572 13.4897 70.7692 13.9937C70.4932 14.4857 70.3552 15.0737 70.3552 15.7577C70.3552 16.4417 70.4932 17.0417 70.7692 17.5577C71.0572 18.0737 71.4292 18.4697 71.8852 18.7457C72.3532 19.0097 72.8452 19.1417 73.3612 19.1417C73.8892 19.1417 74.3812 19.0097 74.8372 18.7457C75.2932 18.4817 75.6592 18.0977 75.9352 17.5937C76.2232 17.0777 76.3672 16.4777 76.3672 15.7937ZM85.4344 20.9237C84.4984 20.9237 83.6524 20.7137 82.8964 20.2937C82.1404 19.8617 81.5464 19.2617 81.1144 18.4937C80.6824 17.7137 80.4664 16.8137 80.4664 15.7937C80.4664 14.7857 80.6884 13.8917 81.1324 13.1117C81.5764 12.3317 82.1824 11.7317 82.9504 11.3117C83.7184 10.8917 84.5764 10.6817 85.5244 10.6817C86.4724 10.6817 87.3304 10.8917 88.0984 11.3117C88.8664 11.7317 89.4724 12.3317 89.9164 13.1117C90.3604 13.8917 90.5824 14.7857 90.5824 15.7937C90.5824 16.8017 90.3544 17.6957 89.8984 18.4757C89.4424 19.2557 88.8184 19.8617 88.0264 20.2937C87.2464 20.7137 86.3824 20.9237 85.4344 20.9237ZM85.4344 19.1417C85.9624 19.1417 86.4544 19.0157 86.9104 18.7637C87.3784 18.5117 87.7564 18.1337 88.0444 17.6297C88.3324 17.1257 88.4764 16.5137 88.4764 15.7937C88.4764 15.0737 88.3384 14.4677 88.0624 13.9757C87.7864 13.4717 87.4204 13.0937 86.9644 12.8417C86.5084 12.5897 86.0164 12.4637 85.4884 12.4637C84.9604 12.4637 84.4684 12.5897 84.0124 12.8417C83.5684 13.0937 83.2144 13.4717 82.9504 13.9757C82.6864 14.4677 82.5544 15.0737 82.5544 15.7937C82.5544 16.8617 82.8244 17.6897 83.3644 18.2777C83.9164 18.8537 84.6064 19.1417 85.4344 19.1417ZM91.9269 15.7937C91.9269 14.7737 92.1309 13.8797 92.5389 13.1117C92.9589 12.3317 93.5349 11.7317 94.2669 11.3117C94.9989 10.8917 95.8389 10.6817 96.7869 10.6817C97.9869 10.6817 98.9769 10.9697 99.7569 11.5457C100.549 12.1097 101.083 12.9197 101.359 13.9757H99.1449C98.9649 13.4837 98.6769 13.0997 98.2809 12.8237C97.8849 12.5477 97.3869 12.4097 96.7869 12.4097C95.9469 12.4097 95.2749 12.7097 94.7709 13.3097C94.2789 13.8977 94.0329 14.7257 94.0329 15.7937C94.0329 16.8617 94.2789 17.6957 94.7709 18.2957C95.2749 18.8957 95.9469 19.1957 96.7869 19.1957C97.9749 19.1957 98.7609 18.6737 99.1449 17.6297H101.359C101.071 18.6377 100.531 19.4417 99.7389 20.0417C98.9469 20.6297 97.9629 20.9237 96.7869 20.9237C95.8389 20.9237 94.9989 20.7137 94.2669 20.2937C93.5349 19.8617 92.9589 19.2617 92.5389 18.4937C92.1309 17.7137 91.9269 16.8137 91.9269 15.7937ZM107.652 15.7397L110.856 20.7617H108.534L106.392 17.3957L104.376 20.7617H102.234L105.438 15.8837L102.234 10.8437H104.556L106.698 14.2097L108.714 10.8437H110.856L107.652 15.7397Z" fill="#EDE7FF"/>
<rect x="0.782402" y="35.2461" width="140.841" height="65.9391" rx="10" fill="#EDE7FF" fill-opacity="0.2"/>
<path d="M77.6678 50.4785H64.3345C58.5012 50.4785 56.0012 53.8118 56.0012 58.8119V75.4785C56.0012 80.4785 58.5012 83.8119 64.3345 83.8119H77.6678C83.5012 83.8119 86.0012 80.4785 86.0012 75.4785V58.8119C86.0012 53.8118 83.5012 50.4785 77.6678 50.4785ZM64.3345 67.5619H71.0012C71.6845 67.5619 72.2512 68.1285 72.2512 68.8119C72.2512 69.4952 71.6845 70.0619 71.0012 70.0619H64.3345C63.6512 70.0619 63.0845 69.4952 63.0845 68.8119C63.0845 68.1285 63.6512 67.5619 64.3345 67.5619ZM77.6678 76.7285H64.3345C63.6512 76.7285 63.0845 76.1619 63.0845 75.4785C63.0845 74.7952 63.6512 74.2285 64.3345 74.2285H77.6678C78.3512 74.2285 78.9178 74.7952 78.9178 75.4785C78.9178 76.1619 78.3512 76.7285 77.6678 76.7285ZM81.8345 62.5619H78.5012C75.9678 62.5619 73.9178 60.5119 73.9178 57.9785V54.6452C73.9178 53.9618 74.4845 53.3952 75.1678 53.3952C75.8512 53.3952 76.4178 53.9618 76.4178 54.6452V57.9785C76.4178 59.1285 77.3512 60.0619 78.5012 60.0619H81.8345C82.5178 60.0619 83.0845 60.6285 83.0845 61.3119C83.0845 61.9952 82.5178 62.5619 81.8345 62.5619Z" fill="#EDE7FF"/>
</svg>
