<svg width="20" height="21" viewBox="0 0 20 21" fill="none" xmlns="http://www.w3.org/2000/svg">
<path d="M15.2734 19.6155C14.5109 19.6155 13.4399 19.3282 11.8359 18.3948C9.88556 17.2555 8.37696 16.2036 6.43712 14.1883C4.56681 12.2412 3.65665 10.9807 2.38282 8.56611C0.943759 5.83987 1.18907 4.41084 1.46329 3.80008C1.78985 3.0701 2.27188 2.63349 2.89493 2.20014C3.24882 1.95862 3.62332 1.75158 4.01368 1.58165C4.05274 1.56416 4.08907 1.54747 4.12149 1.53242C4.31485 1.44168 4.60782 1.30455 4.97892 1.45104C5.22657 1.54788 5.44767 1.74604 5.79376 2.10208C6.50353 2.83125 7.47345 4.45519 7.83126 5.25271C8.07149 5.79023 8.23048 6.14505 8.23087 6.543C8.23087 7.0089 8.00587 7.36819 7.73282 7.75597C7.68165 7.82881 7.63087 7.89839 7.58165 7.96593C7.28438 8.37283 7.21915 8.49043 7.26212 8.70039C7.34923 9.12234 7.99884 10.3784 9.06642 11.4881C10.134 12.5977 11.3051 13.2316 11.7117 13.322C11.9219 13.3688 12.0371 13.298 12.4402 12.9773C12.4981 12.9313 12.5574 12.8837 12.6195 12.8361C13.0359 12.5135 13.3649 12.2852 13.8016 12.2852H13.8039C14.184 12.2852 14.5094 12.4569 15.0484 12.7401C15.7516 13.1096 17.3574 14.1069 18.0617 14.847C18.4043 15.2067 18.5953 15.4362 18.6887 15.6938C18.8293 16.0816 18.6969 16.3855 18.6106 16.589C18.5961 16.6228 18.5801 16.6598 18.5633 16.7009C18.3989 17.1068 18.1989 17.4961 17.966 17.8638C17.5508 18.5108 17.1301 19.0117 16.4277 19.3522C16.0671 19.5299 15.6724 19.62 15.2734 19.6155Z" fill="#F4F4F4"/>
</svg>
